<?xml version="1.0" encoding="UTF-8" standalone="no"?>
<!-- Created with Inkscape (http://www.inkscape.org/) -->

<svg
   xmlns:dc="http://purl.org/dc/elements/1.1/"
   xmlns:cc="http://creativecommons.org/ns#"
   xmlns:rdf="http://www.w3.org/1999/02/22-rdf-syntax-ns#"
   xmlns:svg="http://www.w3.org/2000/svg"
   xmlns="http://www.w3.org/2000/svg"
   xmlns:xlink="http://www.w3.org/1999/xlink"
   xmlns:sodipodi="http://sodipodi.sourceforge.net/DTD/sodipodi-0.dtd"
   xmlns:inkscape="http://www.inkscape.org/namespaces/inkscape"
   id="svg2"
   version="1.1"
   inkscape:version="0.91 r13725"
   xml:space="preserve"
   width="748.79999"
   height="671.30994"
   viewBox="0 0 748.79999 671.30994"
   sodipodi:docname="heatmaps.svg"><metadata
     id="metadata8"><rdf:RDF><cc:Work
         rdf:about=""><dc:format>image/svg+xml</dc:format><dc:type
           rdf:resource="http://purl.org/dc/dcmitype/StillImage" /><dc:title></dc:title></cc:Work></rdf:RDF></metadata><defs
     id="defs6"><clipPath
       clipPathUnits="userSpaceOnUse"
       id="clipPath22"><path
         d="m 0,520.08 595.073,0 L 595.073,0 0,0 0,520.08 Z"
         id="path24"
         inkscape:connector-curvature="0" /></clipPath></defs><sodipodi:namedview
     pagecolor="#ffffff"
     bordercolor="#666666"
     borderopacity="1"
     objecttolerance="10"
     gridtolerance="10"
     guidetolerance="10"
     inkscape:pageopacity="0"
     inkscape:pageshadow="2"
     inkscape:window-width="1920"
     inkscape:window-height="1025"
     id="namedview4"
     showgrid="false"
     inkscape:snap-bbox="true"
     inkscape:bbox-paths="true"
     inkscape:bbox-nodes="true"
     inkscape:snap-bbox-edge-midpoints="true"
     inkscape:snap-bbox-midpoints="true"
     inkscape:snap-page="true"
     inkscape:snap-global="false"
     fit-margin-top="0"
     fit-margin-left="0"
     fit-margin-right="0"
     fit-margin-bottom="0"
     inkscape:zoom="0.72604217"
     inkscape:cx="735.14165"
     inkscape:cy="359.78459"
     inkscape:window-x="0"
     inkscape:window-y="867"
     inkscape:window-maximized="1"
     inkscape:current-layer="g10" /><g
     id="g10"
     inkscape:groupmode="layer"
     inkscape:label="heatmaps"
     transform="matrix(1.25,0,0,-1.25,0,671.30992)"><image
       xlink:href="heatmaps_background.png"
       transform="scale(1,-1)"
       width="599.03998"
       height="520.08002"
       preserveAspectRatio="none"
       id="image4216"
       x="0"
       y="-520.08002" /><g
       id="g18"><g
         id="g20"
         clip-path="url(#clipPath22)"><g
           id="g26"
           transform="translate(84.7912,152.6624)"><path
             d="m 0,0 c 0,-10.511 -15.687,-19.032 -35.039,-19.032 -19.351,0 -35.038,8.521 -35.038,19.032 0,10.508 15.687,19.028 35.038,19.028 C -15.687,19.028 0,10.508 0,0"
             style="fill:#d3d7cf;fill-opacity:1;fill-rule:nonzero;stroke:none"
             id="path28"
             inkscape:connector-curvature="0" /></g><g
           id="g30"
           transform="translate(31.5661,152.2668)"><path
             d="m 0,0 c 0,-7.289 -3.771,-13.196 -8.426,-13.196 -4.654,0 -8.426,5.907 -8.426,13.196 0,7.289 3.772,13.2 8.426,13.2 C -3.771,13.2 0,7.289 0,0"
             style="fill:#ffb600;fill-opacity:1;fill-rule:nonzero;stroke:none"
             id="path32"
             inkscape:connector-curvature="0" /></g><g
           id="g34"
           transform="translate(86.2295,152.2668)"><path
             d="m 0,0 c 0,-7.289 -3.771,-13.196 -8.426,-13.196 -4.651,0 -8.426,5.907 -8.426,13.196 0,7.289 3.775,13.2 8.426,13.2 C -3.771,13.2 0,7.289 0,0"
             style="fill:#ffb600;fill-opacity:1;fill-rule:nonzero;stroke:none"
             id="path36"
             inkscape:connector-curvature="0" /></g><g
           id="g38"
           transform="translate(49.8564,168.7546)"><path
             d="m 0,0 c -9.443,-0.013 -17.885,-4.717 -21.167,-11.802 l 0,-12.6 c 3.295,-7.073 11.733,-11.764 21.167,-11.767 9.227,0.006 17.524,4.497 20.959,11.35 l 0,13.478 C 17.521,-4.494 9.224,-0.006 0,0"
             style="fill:#eeeeec;fill-opacity:1;fill-rule:nonzero;stroke:none"
             id="path40"
             inkscape:connector-curvature="0" /></g><g
           id="g42"
           transform="translate(49.7526,162.1782)"><path
             d="m 0,0 c -9.035,0 -16.356,-7.729 -16.356,-17.264 0.003,-2.81 0.657,-5.577 1.904,-8.058 4.07,-2.754 9.226,-4.265 14.556,-4.27 5.201,0.005 10.237,1.447 14.267,4.082 1.303,2.531 1.988,5.367 1.988,8.246 C 16.359,-7.729 9.035,0 0,0"
             style="fill:#ffb600;fill-opacity:1;fill-rule:nonzero;stroke:none"
             id="path44"
             inkscape:connector-curvature="0" /></g><g
           id="g46"
           transform="translate(41.7379,163.9807)"><path
             d="m 0,0 c 0,-1.045 -1.149,-1.893 -2.569,-1.893 -1.419,0 -2.568,0.848 -2.568,1.893 0,1.046 1.149,1.894 2.568,1.894 C -1.149,1.894 0,1.046 0,0"
             style="fill:#000000;fill-opacity:1;fill-rule:nonzero;stroke:none"
             id="path48"
             inkscape:connector-curvature="0" /></g><g
           id="g50"
           transform="translate(62.4939,163.9807)"><path
             d="m 0,0 c 0,-1.045 -1.15,-1.893 -2.569,-1.893 -1.416,0 -2.569,0.848 -2.569,1.893 0,1.046 1.153,1.894 2.569,1.894 C -1.15,1.894 0,1.046 0,0"
             style="fill:#000000;fill-opacity:1;fill-rule:nonzero;stroke:none"
             id="path52"
             inkscape:connector-curvature="0" /></g><g
           id="g54"
           transform="translate(331.8558,153.185)"><path
             d="m 0,0 c 0,-10.511 -15.687,-19.032 -35.039,-19.032 -19.351,0 -35.038,8.521 -35.038,19.032 0,10.508 15.687,19.028 35.038,19.028 C -15.687,19.028 0,10.508 0,0"
             style="fill:#d3d7cf;fill-opacity:1;fill-rule:nonzero;stroke:none"
             id="path56"
             inkscape:connector-curvature="0" /></g><g
           id="g58"
           transform="translate(278.6307,152.7894)"><path
             d="m 0,0 c 0,-7.289 -3.771,-13.196 -8.426,-13.196 -4.654,0 -8.426,5.907 -8.426,13.196 0,7.289 3.772,13.2 8.426,13.2 C -3.771,13.2 0,7.289 0,0"
             style="fill:#ffb600;fill-opacity:1;fill-rule:nonzero;stroke:none"
             id="path60"
             inkscape:connector-curvature="0" /></g><g
           id="g62"
           transform="translate(333.2941,152.7894)"><path
             d="m 0,0 c 0,-7.289 -3.771,-13.196 -8.426,-13.196 -4.651,0 -8.426,5.907 -8.426,13.196 0,7.289 3.775,13.2 8.426,13.2 C -3.771,13.2 0,7.289 0,0"
             style="fill:#ffb600;fill-opacity:1;fill-rule:nonzero;stroke:none"
             id="path64"
             inkscape:connector-curvature="0" /></g><g
           id="g66"
           transform="translate(296.921,169.2772)"><path
             d="m 0,0 c -9.443,-0.013 -17.885,-4.717 -21.167,-11.802 l 0,-12.6 c 3.295,-7.073 11.733,-11.764 21.167,-11.767 9.227,0.006 17.524,4.497 20.959,11.35 l 0,13.478 C 17.521,-4.494 9.224,-0.006 0,0"
             style="fill:#eeeeec;fill-opacity:1;fill-rule:nonzero;stroke:none"
             id="path68"
             inkscape:connector-curvature="0" /></g><g
           id="g70"
           transform="translate(296.8173,162.7007)"><path
             d="m 0,0 c -9.035,0 -16.356,-7.729 -16.356,-17.264 0.003,-2.81 0.657,-5.577 1.904,-8.058 4.07,-2.754 9.226,-4.265 14.556,-4.27 5.201,0.005 10.237,1.447 14.267,4.082 1.303,2.531 1.988,5.367 1.988,8.246 C 16.359,-7.729 9.035,0 0,0"
             style="fill:#ffb600;fill-opacity:1;fill-rule:nonzero;stroke:none"
             id="path72"
             inkscape:connector-curvature="0" /></g><g
           id="g74"
           transform="translate(288.8025,164.5032)"><path
             d="m 0,0 c 0,-1.045 -1.149,-1.893 -2.569,-1.893 -1.419,0 -2.568,0.848 -2.568,1.893 0,1.046 1.149,1.894 2.568,1.894 C -1.149,1.894 0,1.046 0,0"
             style="fill:#000000;fill-opacity:1;fill-rule:nonzero;stroke:none"
             id="path76"
             inkscape:connector-curvature="0" /></g><g
           id="g78"
           transform="translate(309.5585,164.5032)"><path
             d="m 0,0 c 0,-1.045 -1.15,-1.893 -2.569,-1.893 -1.416,0 -2.569,0.848 -2.569,1.893 0,1.046 1.153,1.894 2.569,1.894 C -1.15,1.894 0,1.046 0,0"
             style="fill:#000000;fill-opacity:1;fill-rule:nonzero;stroke:none"
             id="path80"
             inkscape:connector-curvature="0" /></g></g></g><text
       xml:space="preserve"
       style="font-style:normal;font-weight:normal;font-size:19.24015236px;line-height:1000%;font-family:sans-serif;letter-spacing:0px;word-spacing:0px;fill:#000000;fill-opacity:1;stroke:none;stroke-width:1px;stroke-linecap:butt;stroke-linejoin:miter;stroke-opacity:1"
       x="163.09035"
       y="586.46472"
       id="text4219"
       sodipodi:linespacing="1000%"
       transform="matrix(0,1,1,0,0,0)"><tspan
         sodipodi:role="line"
         id="tspan4221"
         x="163.09035"
         y="586.46472"
         style="font-style:normal;font-variant:normal;font-weight:normal;font-stretch:normal;font-family:cmr10;-inkscape-font-specification:cmr10">Recognition accuracy (%)</tspan></text>
<text
       transform="scale(1,-1)"
       sodipodi:linespacing="1000%"
       id="text4223"
       y="-522.51971"
       x="120.1301"
       style="font-style:normal;font-weight:normal;font-size:21.26786423px;line-height:1000%;font-family:sans-serif;letter-spacing:0px;word-spacing:0px;fill:#000000;fill-opacity:1;stroke:none;stroke-width:1px;stroke-linecap:butt;stroke-linejoin:miter;stroke-opacity:1"
       xml:space="preserve"><tspan
         style="font-style:normal;font-variant:normal;font-weight:normal;font-stretch:normal;font-family:cmr10;-inkscape-font-specification:cmr10"
         y="-522.51971"
         x="120.1301"
         id="tspan4225"
         sodipodi:role="line">Noisy</tspan></text>
<text
       xml:space="preserve"
       style="font-style:normal;font-weight:normal;font-size:21.26786423px;line-height:1000%;font-family:sans-serif;letter-spacing:0px;word-spacing:0px;fill:#000000;fill-opacity:1;stroke:none;stroke-width:1px;stroke-linecap:butt;stroke-linejoin:miter;stroke-opacity:1"
       x="372.5701"
       y="-522.05243"
       id="text4227"
       sodipodi:linespacing="1000%"
       transform="scale(1,-1)"><tspan
         sodipodi:role="line"
         id="tspan4229"
         x="372.5701"
         y="-522.05243"
         style="font-style:normal;font-variant:normal;font-weight:normal;font-stretch:normal;font-family:cmr10;-inkscape-font-specification:cmr10">Clean</tspan></text>
<text
       xml:space="preserve"
       style="font-style:normal;font-weight:normal;font-size:16.07130051px;line-height:1000%;font-family:sans-serif;letter-spacing:0px;word-spacing:0px;fill:#000000;fill-opacity:1;stroke:none;stroke-width:1px;stroke-linecap:butt;stroke-linejoin:miter;stroke-opacity:1"
       x="323.41541"
       y="-4.1847334"
       id="text4235"
       sodipodi:linespacing="1000%"
       transform="scale(1,-1)"><tspan
         sodipodi:role="line"
         id="tspan4237"
         x="323.41541"
         y="-4.1847334"
         style="font-style:normal;font-variant:normal;font-weight:normal;font-stretch:normal;font-family:cmr10;-inkscape-font-specification:cmr10">Sagittal distance (cm)</tspan></text>
<text
       transform="scale(1,-1)"
       sodipodi:linespacing="1000%"
       id="text4231"
       y="-4.1847334"
       x="70.975426"
       style="font-style:normal;font-weight:normal;font-size:16.07130051px;line-height:1000%;font-family:sans-serif;letter-spacing:0px;word-spacing:0px;fill:#000000;fill-opacity:1;stroke:none;stroke-width:1px;stroke-linecap:butt;stroke-linejoin:miter;stroke-opacity:1"
       xml:space="preserve"><tspan
         style="font-style:normal;font-variant:normal;font-weight:normal;font-stretch:normal;font-family:cmr10;-inkscape-font-specification:cmr10"
         y="-4.1847334"
         x="70.975426"
         id="tspan4233"
         sodipodi:role="line">Sagittal distance (cm)</tspan></text>
<text
       xml:space="preserve"
       style="font-style:normal;font-weight:normal;font-size:16.07130051px;line-height:1000%;font-family:sans-serif;letter-spacing:0px;word-spacing:0px;fill:#000000;fill-opacity:1;stroke:none;stroke-width:1px;stroke-linecap:butt;stroke-linejoin:miter;stroke-opacity:1"
       x="233.94719"
       y="273.09851"
       id="text4239"
       sodipodi:linespacing="1000%"
       transform="matrix(0,1,1,0,0,0)"><tspan
         sodipodi:role="line"
         id="tspan4241"
         x="233.94719"
         y="273.09851"
         style="font-style:normal;font-variant:normal;font-weight:normal;font-stretch:normal;font-family:cmr10;-inkscape-font-specification:cmr10">Frontal distance (cm)</tspan></text>
<text
       transform="matrix(0,1,1,0,0,0)"
       sodipodi:linespacing="1000%"
       id="text4243"
       y="24.595924"
       x="233.94719"
       style="font-style:normal;font-weight:normal;font-size:16.07130051px;line-height:1000%;font-family:sans-serif;letter-spacing:0px;word-spacing:0px;fill:#000000;fill-opacity:1;stroke:none;stroke-width:1px;stroke-linecap:butt;stroke-linejoin:miter;stroke-opacity:1"
       xml:space="preserve"><tspan
         style="font-style:normal;font-variant:normal;font-weight:normal;font-stretch:normal;font-family:cmr10;-inkscape-font-specification:cmr10"
         y="24.595924"
         x="233.94719"
         id="tspan4245"
         sodipodi:role="line">Frontal distance (cm)</tspan></text>
</g></svg>
